<svg width="42" height="44" viewBox="0 0 42 44" fill="none" xmlns="http://www.w3.org/2000/svg">
<path d="M36.1603 19.4546L23.0245 6.18605C22.4674 5.62061 21.7337 5.33789 21 5.33789C20.2663 5.33789 19.5326 5.62061 18.9755 6.18605L16.3777 8.81012L19.5924 12.0573C20.6603 11.4232 22.0516 11.5605 22.9674 12.4855C23.8832 13.4105 24.0163 14.8158 23.3886 15.8918L26.5489 19.0841C27.6168 18.45 29.0082 18.5873 29.9239 19.5123C31.0109 20.6102 31.0109 22.3889 29.9239 23.4868C28.837 24.5847 27.0761 24.5847 25.9891 23.4868C25.0734 22.5618 24.9375 21.1564 25.5652 20.0777L22.4049 16.8855C22.1793 17.02 21.9429 17.1188 21.6957 17.1819V25.8144C22.894 26.1273 23.7826 27.2171 23.7826 28.5263C23.7826 30.0799 22.538 31.3371 21 31.3371C19.462 31.3371 18.2174 30.0799 18.2174 28.5263C18.2174 27.2171 19.106 26.1273 20.3043 25.8144V17.1819C19.8397 17.0611 19.3967 16.8278 19.0326 16.46C18.1168 15.535 17.9837 14.1296 18.6114 13.0537L15.394 9.80375L5.83967 19.4546C4.72011 20.5828 4.72011 22.4163 5.83967 23.5444L18.9755 36.813C19.5326 37.3785 20.2663 37.6612 21 37.6612C21.7337 37.6612 22.4674 37.3785 23.0245 36.813L36.1603 23.5444C37.2799 22.4163 37.2799 20.5828 36.1603 19.4546Z" fill="black"/>
<path d="M35.1406 1H6.85938C3.62848 1 1 3.7599 1 7.15234V36.8477C1 40.2401 3.62848 43 6.85938 43H35.1406C38.3715 43 41 40.2401 41 36.8477V7.15234C41 3.7599 38.3715 1 35.1406 1ZM38.6562 36.8477C38.6562 38.8831 37.0791 40.5391 35.1406 40.5391H6.85938C4.9209 40.5391 3.34375 38.8831 3.34375 36.8477V7.15234C3.34375 5.11694 4.9209 3.46094 6.85938 3.46094H35.1406C37.0791 3.46094 38.6562 5.11694 38.6562 7.15234V36.8477Z" fill="black" stroke="black" stroke-width="0.5"/>
</svg>
