<svg width="42" height="44" viewBox="0 0 42 44" fill="none" xmlns="http://www.w3.org/2000/svg">
<path fill-rule="evenodd" clip-rule="evenodd" d="M31 31H27V24.001C27 22.081 26.153 21.01 24.634 21.01C22.981 21.01 22 22.126 22 24.001V31H18V18H22V19.462C22 19.462 23.255 17.26 26.083 17.26C28.912 17.26 31 18.986 31 22.558V31ZM13.442 15.921C13.1201 15.9198 12.8015 15.8552 12.5045 15.7309C12.2075 15.6066 11.938 15.4249 11.7112 15.1964C11.4844 14.9679 11.3049 14.6969 11.1829 14.399C11.0608 14.101 10.9987 13.782 11 13.46C10.9988 13.1381 11.0611 12.8192 11.1831 12.5214C11.3052 12.2235 11.4848 11.9527 11.7115 11.7242C11.9383 11.4958 12.2078 11.3143 12.5047 11.19C12.8017 11.0657 13.1201 11.0012 13.442 11C14.0919 11.0026 14.7141 11.2633 15.1719 11.7246C15.6296 12.1859 15.8854 12.8101 15.883 13.46C15.8845 13.7819 15.8225 14.1009 15.7005 14.3989C15.5786 14.6968 15.3992 14.9678 15.1725 15.1963C14.9458 15.4249 14.6763 15.6065 14.3794 15.7309C14.0824 15.8552 13.7639 15.9198 13.442 15.921V15.921ZM11 31H16V18H11V31Z" fill="black"/>
<path d="M35.1406 1H6.85938C3.62848 1 1 3.7599 1 7.15234V36.8477C1 40.2401 3.62848 43 6.85938 43H35.1406C38.3715 43 41 40.2401 41 36.8477V7.15234C41 3.7599 38.3715 1 35.1406 1ZM38.6562 36.8477C38.6562 38.8831 37.0791 40.5391 35.1406 40.5391H6.85938C4.9209 40.5391 3.34375 38.8831 3.34375 36.8477V7.15234C3.34375 5.11694 4.9209 3.46094 6.85938 3.46094H35.1406C37.0791 3.46094 38.6562 5.11694 38.6562 7.15234V36.8477Z" fill="black" stroke="black" stroke-width="0.5"/>
</svg>
