<svg width="42" height="44" viewBox="0 0 42 44" fill="none" xmlns="http://www.w3.org/2000/svg">
<path fill-rule="evenodd" clip-rule="evenodd" d="M28.7437 22.3213V33.2677H12.16V22.3213H10V35.3689H30.8925V22.3213H28.7437Z" fill="black"/>
<path fill-rule="evenodd" clip-rule="evenodd" d="M24.844 31.4409L13.593 31.4463L13.5918 29.2622L24.8422 29.2568L24.844 31.4409ZM32.4467 19.0739L30.5216 9L28.1549 9.37337L30.0794 19.4467L32.4467 19.0744V19.0739ZM25.1148 26.4571L13.9115 25.5188L13.6907 27.6937L24.894 28.6309L25.1148 26.4565V26.4571ZM25.8536 23.6072L14.9888 20.9526L14.3648 23.0622L25.2302 25.7163L25.8536 23.6072V23.6072ZM27.2724 21.1091L17.581 15.9148L16.3599 17.7957L26.0514 22.9899L27.2718 21.1096L27.2724 21.1091ZM29.6485 19.58L23.3092 11.1323L21.324 12.3625L27.6633 20.8096L29.6485 19.5795V19.58Z" fill="black"/>
<path d="M35.1406 1H6.85938C3.62848 1 1 3.7599 1 7.15234V36.8477C1 40.2401 3.62848 43 6.85938 43H35.1406C38.3715 43 41 40.2401 41 36.8477V7.15234C41 3.7599 38.3715 1 35.1406 1ZM38.6562 36.8477C38.6562 38.8831 37.0791 40.5391 35.1406 40.5391H6.85938C4.9209 40.5391 3.34375 38.8831 3.34375 36.8477V7.15234C3.34375 5.11694 4.9209 3.46094 6.85938 3.46094H35.1406C37.0791 3.46094 38.6562 5.11694 38.6562 7.15234V36.8477Z" fill="black" stroke="black" stroke-width="0.5"/>
</svg>
